<mxfile host="www.draw.io" modified="2020-03-06T09:03:44.169Z" agent="Mozilla/5.0 (Macintosh; Intel Mac OS X 10_14_6) AppleWebKit/537.36 (KHTML, like Gecko) Chrome/80.0.3987.122 Safari/537.36" etag="7oPxWdxx3V7tDcO1ztOU" version="12.8.1" type="github">
  <diagram id="0CJbJKZwFz1q1Lmc70vx" name="Page-1">
    <mxGraphModel dx="2772" dy="870" grid="1" gridSize="10" guides="1" tooltips="1" connect="1" arrows="1" fold="1" page="1" pageScale="1" pageWidth="827" pageHeight="1169" math="0" shadow="0">
      <root>
        <mxCell id="0" />
        <mxCell id="1" parent="0" />
        <mxCell id="fxnPY3MzVxRmhkM58OgS-38" value="" style="rounded=0;whiteSpace=wrap;html=1;" parent="1" vertex="1">
          <mxGeometry x="469.5" y="220" width="830" height="80" as="geometry" />
        </mxCell>
        <mxCell id="fxnPY3MzVxRmhkM58OgS-11" value="" style="rounded=0;whiteSpace=wrap;html=1;" parent="1" vertex="1">
          <mxGeometry x="890" y="310" width="410" height="160" as="geometry" />
        </mxCell>
        <mxCell id="fxnPY3MzVxRmhkM58OgS-10" value="" style="rounded=0;whiteSpace=wrap;html=1;" parent="1" vertex="1">
          <mxGeometry x="470" y="480" width="830" height="150" as="geometry" />
        </mxCell>
        <mxCell id="fxnPY3MzVxRmhkM58OgS-6" value="" style="rounded=0;whiteSpace=wrap;html=1;" parent="1" vertex="1">
          <mxGeometry x="470" y="310" width="410" height="160" as="geometry" />
        </mxCell>
        <mxCell id="sGaDUNlKgrUtjBCFJQaa-2" value="增量消费" style="rounded=0;whiteSpace=wrap;html=1;fillColor=#33FF33;" parent="1" vertex="1">
          <mxGeometry x="490" y="320" width="120" height="60" as="geometry" />
        </mxCell>
        <mxCell id="sGaDUNlKgrUtjBCFJQaa-3" value="数据客户端" style="rounded=0;whiteSpace=wrap;html=1;fillColor=#33FF33;" parent="1" vertex="1">
          <mxGeometry x="490" y="390" width="120" height="60" as="geometry" />
        </mxCell>
        <mxCell id="sGaDUNlKgrUtjBCFJQaa-4" value="模型定义" style="rounded=0;whiteSpace=wrap;html=1;fillColor=#33FF33;" parent="1" vertex="1">
          <mxGeometry x="620" y="320" width="120" height="60" as="geometry" />
        </mxCell>
        <mxCell id="sGaDUNlKgrUtjBCFJQaa-5" value="全量拉取" style="rounded=0;whiteSpace=wrap;html=1;fillColor=#33FF33;" parent="1" vertex="1">
          <mxGeometry x="620" y="390" width="120" height="60" as="geometry" />
        </mxCell>
        <mxCell id="sGaDUNlKgrUtjBCFJQaa-6" value="模型组装" style="rounded=0;whiteSpace=wrap;html=1;fillColor=#FFCCCC;" parent="1" vertex="1">
          <mxGeometry x="750" y="390" width="120" height="60" as="geometry" />
        </mxCell>
        <mxCell id="sGaDUNlKgrUtjBCFJQaa-7" value="数据存储" style="rounded=0;whiteSpace=wrap;html=1;fillColor=#FFCCCC;" parent="1" vertex="1">
          <mxGeometry x="822.5" y="490" width="120" height="60" as="geometry" />
        </mxCell>
        <mxCell id="fxnPY3MzVxRmhkM58OgS-1" value="ORM核心" style="rounded=0;whiteSpace=wrap;html=1;fillColor=#FFCCCC;" parent="1" vertex="1">
          <mxGeometry x="900" y="390" width="120" height="60" as="geometry" />
        </mxCell>
        <mxCell id="fxnPY3MzVxRmhkM58OgS-3" value="业务场景解析" style="rounded=0;whiteSpace=wrap;html=1;fillColor=#33FF33;" parent="1" vertex="1">
          <mxGeometry x="1030" y="390" width="120" height="60" as="geometry" />
        </mxCell>
        <mxCell id="fxnPY3MzVxRmhkM58OgS-4" value="影响面" style="rounded=0;whiteSpace=wrap;html=1;fillColor=#33FF33;" parent="1" vertex="1">
          <mxGeometry x="1160" y="390" width="120" height="60" as="geometry" />
        </mxCell>
        <mxCell id="fxnPY3MzVxRmhkM58OgS-8" value="二级索引" style="rounded=0;whiteSpace=wrap;html=1;fillColor=#E5CCFF;" parent="1" vertex="1">
          <mxGeometry x="490" y="560" width="120" height="60" as="geometry" />
        </mxCell>
        <mxCell id="fxnPY3MzVxRmhkM58OgS-9" value="模型映射" style="rounded=0;whiteSpace=wrap;html=1;fillColor=#E5CCFF;" parent="1" vertex="1">
          <mxGeometry x="1160" y="560" width="120" height="60" as="geometry" />
        </mxCell>
        <mxCell id="fxnPY3MzVxRmhkM58OgS-12" value="实体列表" style="rounded=0;whiteSpace=wrap;html=1;fillColor=#33FF33;" parent="1" vertex="1">
          <mxGeometry x="900" y="320" width="120" height="60" as="geometry" />
        </mxCell>
        <mxCell id="fxnPY3MzVxRmhkM58OgS-13" value="图上迭代关系" style="rounded=0;whiteSpace=wrap;html=1;fillColor=#33FF33;" parent="1" vertex="1">
          <mxGeometry x="1030" y="320" width="120" height="60" as="geometry" />
        </mxCell>
        <mxCell id="fxnPY3MzVxRmhkM58OgS-14" value="数据模型" style="shape=process;whiteSpace=wrap;html=1;backgroundOutline=1;fillColor=#FFFFCC;" parent="1" vertex="1">
          <mxGeometry x="499.5" y="230" width="340" height="60" as="geometry" />
        </mxCell>
        <mxCell id="fxnPY3MzVxRmhkM58OgS-15" value="业务模型" style="shape=process;whiteSpace=wrap;html=1;backgroundOutline=1;fillColor=#FFFFCC;" parent="1" vertex="1">
          <mxGeometry x="919.5" y="230" width="365" height="60" as="geometry" />
        </mxCell>
        <mxCell id="fxnPY3MzVxRmhkM58OgS-16" value="数据结构" style="shape=process;whiteSpace=wrap;html=1;backgroundOutline=1;fillColor=#E5CCFF;" parent="1" vertex="1">
          <mxGeometry x="750" y="560" width="120" height="60" as="geometry" />
        </mxCell>
        <mxCell id="fxnPY3MzVxRmhkM58OgS-20" value="高可用" style="rounded=0;whiteSpace=wrap;html=1;fillColor=#33FF33;" parent="1" vertex="1">
          <mxGeometry x="750" y="320" width="120" height="60" as="geometry" />
        </mxCell>
        <mxCell id="fxnPY3MzVxRmhkM58OgS-22" value="自动影响面" style="rounded=0;whiteSpace=wrap;html=1;fillColor=#33FF33;" parent="1" vertex="1">
          <mxGeometry x="1160" y="320" width="120" height="60" as="geometry" />
        </mxCell>
        <mxCell id="fxnPY3MzVxRmhkM58OgS-23" value="领域模型" style="rounded=0;whiteSpace=wrap;html=1;fillColor=#E5CCFF;" parent="1" vertex="1">
          <mxGeometry x="620" y="490" width="120" height="60" as="geometry" />
        </mxCell>
        <mxCell id="fxnPY3MzVxRmhkM58OgS-24" value="多版本数据" style="rounded=0;whiteSpace=wrap;html=1;fillColor=#E5CCFF;" parent="1" vertex="1">
          <mxGeometry x="1035" y="490" width="120" height="60" as="geometry" />
        </mxCell>
        <mxCell id="fxnPY3MzVxRmhkM58OgS-25" value="监控" style="rounded=0;whiteSpace=wrap;html=1;fillColor=#E6FFCC;" parent="1" vertex="1">
          <mxGeometry x="1320" y="220" width="120" height="60" as="geometry" />
        </mxCell>
        <mxCell id="fxnPY3MzVxRmhkM58OgS-26" value="变更核心" style="rounded=0;whiteSpace=wrap;html=1;fillColor=#E6FFCC;" parent="1" vertex="1">
          <mxGeometry x="1320" y="290" width="120" height="60" as="geometry" />
        </mxCell>
        <mxCell id="fxnPY3MzVxRmhkM58OgS-27" value="灰度分批" style="rounded=0;whiteSpace=wrap;html=1;fillColor=#E6FFCC;" parent="1" vertex="1">
          <mxGeometry x="1320" y="360" width="120" height="60" as="geometry" />
        </mxCell>
        <mxCell id="fxnPY3MzVxRmhkM58OgS-28" value="九州2.0" style="rounded=0;whiteSpace=wrap;html=1;fillColor=#E6FFCC;" parent="1" vertex="1">
          <mxGeometry x="1320" y="430" width="120" height="60" as="geometry" />
        </mxCell>
        <mxCell id="fxnPY3MzVxRmhkM58OgS-29" value="spanner" style="rounded=0;whiteSpace=wrap;html=1;fillColor=#E6FFCC;" parent="1" vertex="1">
          <mxGeometry x="1320" y="500" width="120" height="60" as="geometry" />
        </mxCell>
        <mxCell id="fxnPY3MzVxRmhkM58OgS-30" value="oss" style="rounded=0;whiteSpace=wrap;html=1;fillColor=#E6FFCC;" parent="1" vertex="1">
          <mxGeometry x="1320" y="570" width="120" height="60" as="geometry" />
        </mxCell>
        <mxCell id="fxnPY3MzVxRmhkM58OgS-32" value="lindorm" style="shape=process;whiteSpace=wrap;html=1;backgroundOutline=1;fillColor=#E5CCFF;" parent="1" vertex="1">
          <mxGeometry x="900" y="560" width="120" height="60" as="geometry" />
        </mxCell>
        <mxCell id="fxnPY3MzVxRmhkM58OgS-33" value="zdalproxy" style="rounded=0;whiteSpace=wrap;html=1;fillColor=#CCFFFF;" parent="1" vertex="1">
          <mxGeometry x="330" y="220" width="120" height="60" as="geometry" />
        </mxCell>
        <mxCell id="fxnPY3MzVxRmhkM58OgS-34" value="interfacce" style="rounded=0;whiteSpace=wrap;html=1;fillColor=#CCFFFF;" parent="1" vertex="1">
          <mxGeometry x="330" y="290" width="120" height="60" as="geometry" />
        </mxCell>
        <mxCell id="fxnPY3MzVxRmhkM58OgS-35" value="light" style="rounded=0;whiteSpace=wrap;html=1;fillColor=#CCFFFF;" parent="1" vertex="1">
          <mxGeometry x="330" y="360" width="120" height="60" as="geometry" />
        </mxCell>
        <mxCell id="fxnPY3MzVxRmhkM58OgS-36" value="odps" style="rounded=0;whiteSpace=wrap;html=1;fillColor=#CCFFFF;" parent="1" vertex="1">
          <mxGeometry x="330" y="430" width="120" height="60" as="geometry" />
        </mxCell>
        <mxCell id="fxnPY3MzVxRmhkM58OgS-37" value="http" style="rounded=0;whiteSpace=wrap;html=1;fillColor=#CCFFFF;" parent="1" vertex="1">
          <mxGeometry x="330" y="500" width="120" height="60" as="geometry" />
        </mxCell>
        <mxCell id="EJYTLcY3ybhVH17zaPgJ-7" value="skyline" style="rounded=0;whiteSpace=wrap;html=1;fillColor=#CCFFFF;" vertex="1" parent="1">
          <mxGeometry x="330" y="570" width="120" height="60" as="geometry" />
        </mxCell>
      </root>
    </mxGraphModel>
  </diagram>
</mxfile>
